<svg id="ic_fb" xmlns="http://www.w3.org/2000/svg" width="29.87" height="29.87" viewBox="0 0 29.87 29.87">
  <path id="Path_1" data-name="Path 1" d="M291.23,508.668q-.187.03-.375.056Q291.043,508.7,291.23,508.668Zm0,0" transform="translate(-273.887 -478.993)" fill="#ccc"/>
  <path id="Path_2" data-name="Path 2" d="M299.518,507.793l-.178.031Zm0,0" transform="translate(-281.876 -478.169)" fill="#ccc"/>
  <path id="Path_3" data-name="Path 3" d="M278.049,510.34q-.218.025-.439.043Q277.83,510.365,278.049,510.34Zm0,0" transform="translate(-261.414 -480.567)" fill="#ccc"/>
  <path id="Path_4" data-name="Path 4" d="M286.656,509.738l-.211.026Zm0,0" transform="translate(-269.735 -480)" fill="#ccc"/>
  <path id="Path_5" data-name="Path 5" d="M306.822,506.41l-.158.033Zm0,0" transform="translate(-288.773 -476.866)" fill="#ccc"/>
  <path id="Path_6" data-name="Path 6" d="M324.611,502.113l-.127.035Zm0,0" transform="translate(-305.554 -472.82)" fill="#ccc"/>
  <path id="Path_7" data-name="Path 7" d="M319.2,503.543l-.139.036Zm0,0" transform="translate(-300.445 -474.167)" fill="#ccc"/>
  <path id="Path_8" data-name="Path 8" d="M312.214,505.254l-.147.033Zm0,0" transform="translate(-293.861 -475.778)" fill="#ccc"/>
  <path id="Path_9" data-name="Path 9" d="M273.716,511.09l-.236.018Zm0,0" transform="translate(-257.525 -481.273)" fill="#ccc"/>
  <path id="Path_10" data-name="Path 10" d="M29.87,14.935A14.935,14.935,0,1,0,14.935,29.87c.088,0,.175,0,.263,0V18.24H11.989V14.5H15.2V11.749c0-3.191,1.948-4.928,4.795-4.928a26.413,26.413,0,0,1,2.877.147V10.3H20.906c-1.549,0-1.849.736-1.849,1.816V14.5h3.7l-.483,3.739H19.057V29.293A14.943,14.943,0,0,0,29.87,14.935Zm0,0" fill="#ccc"/>
  <path id="Path_11" data-name="Path 11" d="M265.359,511.43q-.233.015-.468.023Q265.125,511.445,265.359,511.43Zm0,0" transform="translate(-249.437 -481.594)" fill="#ccc"/>
  <path id="Path_12" data-name="Path 12" d="M260.752,511.836l-.248.006Zm0,0" transform="translate(-245.306 -481.976)" fill="#ccc"/>
</svg>
