<svg id="ic_ig" xmlns="http://www.w3.org/2000/svg" width="29.87" height="29.87" viewBox="0 0 29.87 29.87">
  <path id="Path_13" data-name="Path 13" d="M212.717,209.859A2.859,2.859,0,1,1,209.859,207,2.859,2.859,0,0,1,212.717,209.859Zm0,0" transform="translate(-194.924 -194.924)" fill="#ccc"/>
  <path id="Path_14" data-name="Path 14" d="M149.2,137.461a2.84,2.84,0,0,0-1.628-1.628,4.745,4.745,0,0,0-1.592-.3c-.9-.041-1.176-.05-3.465-.05s-2.561.009-3.465.05a4.748,4.748,0,0,0-1.592.3,2.841,2.841,0,0,0-1.628,1.628,4.746,4.746,0,0,0-.3,1.592c-.041.9-.05,1.175-.05,3.465s.009,2.561.05,3.465a4.744,4.744,0,0,0,.3,1.592,2.84,2.84,0,0,0,1.628,1.628,4.739,4.739,0,0,0,1.592.3c.9.041,1.175.05,3.465.05s2.561-.009,3.465-.05a4.739,4.739,0,0,0,1.592-.3,2.84,2.84,0,0,0,1.628-1.628,4.749,4.749,0,0,0,.3-1.592c.041-.9.05-1.176.05-3.465s-.009-2.561-.05-3.465A4.74,4.74,0,0,0,149.2,137.461Zm-6.685,9.461a4.4,4.4,0,1,1,4.4-4.4A4.4,4.4,0,0,1,142.515,146.923Zm4.578-7.952a1.029,1.029,0,1,1,1.029-1.029A1.029,1.029,0,0,1,147.093,138.971Zm0,0" transform="translate(-127.581 -127.584)" fill="#ccc"/>
  <path id="Path_15" data-name="Path 15" d="M14.935,0A14.935,14.935,0,1,0,29.87,14.935,14.937,14.937,0,0,0,14.935,0Zm8.524,18.471a6.292,6.292,0,0,1-.4,2.082,4.385,4.385,0,0,1-2.508,2.508,6.3,6.3,0,0,1-2.082.4c-.915.042-1.207.052-3.536.052s-2.621-.01-3.536-.052a6.3,6.3,0,0,1-2.082-.4A4.385,4.385,0,0,1,6.81,20.552a6.29,6.29,0,0,1-.4-2.082c-.042-.915-.052-1.207-.052-3.536s.01-2.621.052-3.536a6.293,6.293,0,0,1,.4-2.082A4.388,4.388,0,0,1,9.317,6.809a6.3,6.3,0,0,1,2.082-.4c.915-.042,1.207-.052,3.536-.052s2.621.01,3.536.052a6.3,6.3,0,0,1,2.082.4A4.386,4.386,0,0,1,23.06,9.317a6.291,6.291,0,0,1,.4,2.082c.042.915.052,1.207.052,3.536S23.5,17.556,23.459,18.471Zm0,0" fill="#ccc"/>
</svg>
