<svg xmlns="http://www.w3.org/2000/svg" width="29.87" height="29.87" viewBox="0 0 29.87 29.87">
  <path id="ic_tw" d="M14.935,0A14.935,14.935,0,1,0,29.87,14.935,14.937,14.937,0,0,0,14.935,0Zm6.819,11.645q.01.22.01.443a9.687,9.687,0,0,1-9.753,9.753h0A9.7,9.7,0,0,1,6.756,20.3a6.972,6.972,0,0,0,.818.047,6.878,6.878,0,0,0,4.258-1.467,3.432,3.432,0,0,1-3.2-2.381,3.417,3.417,0,0,0,1.548-.059,3.429,3.429,0,0,1-2.75-3.36c0-.015,0-.029,0-.044a3.4,3.4,0,0,0,1.553.429A3.431,3.431,0,0,1,7.919,8.89a9.732,9.732,0,0,0,7.066,3.582,3.43,3.43,0,0,1,5.841-3.126A6.876,6.876,0,0,0,23,8.513a3.441,3.441,0,0,1-1.507,1.9,6.837,6.837,0,0,0,1.968-.54,6.966,6.966,0,0,1-1.71,1.775Zm0,0" fill="#ccc"/>
</svg>
