<svg id="ic_wa" xmlns="http://www.w3.org/2000/svg" width="29.87" height="29.87" viewBox="0 0 29.87 29.87">
  <path id="Path_16" data-name="Path 16" d="M14.935,0A14.935,14.935,0,1,0,29.87,14.935,14.937,14.937,0,0,0,14.935,0Zm.317,23.63h0a8.935,8.935,0,0,1-4.272-1.088L6.238,23.785l1.268-4.631a8.939,8.939,0,1,1,7.746,4.476Zm0,0" fill="#ccc"/>
  <path id="Path_17" data-name="Path 17" d="M141.5,124.469a7.431,7.431,0,0,0-6.3,11.379l.177.281-.751,2.741,2.812-.737.271.161a7.418,7.418,0,0,0,3.781,1.035h0a7.43,7.43,0,0,0,0-14.86Zm4.37,10.62a2.3,2.3,0,0,1-1.507,1.062,3.065,3.065,0,0,1-1.407-.088,12.9,12.9,0,0,1-1.273-.47,9.955,9.955,0,0,1-3.815-3.371,4.343,4.343,0,0,1-.912-2.31,2.5,2.5,0,0,1,.782-1.863.821.821,0,0,1,.6-.279c.149,0,.3,0,.428.008s.321-.052.5.383.633,1.546.689,1.658a.412.412,0,0,1,.019.391,6.364,6.364,0,0,1-.558.764c-.1.123-.228.232-.1.456a6.733,6.733,0,0,0,1.242,1.547,6.105,6.105,0,0,0,1.8,1.108c.223.112.353.093.484-.056s.558-.652.707-.876.3-.186.5-.112,1.3.615,1.526.726.372.168.428.261a1.862,1.862,0,0,1-.13,1.062Zm0,0" transform="translate(-126.249 -117.208)" fill="#ccc"/>
</svg>
